<svg xmlns="http://www.w3.org/2000/svg" viewBox="0 0 18.62 8.55"><defs><style>.cls-1{fill:#1d1d1b;}.cls-2{fill:#27debf;}</style></defs><title>fullstack-coach-logo</title><g id="Ebene_2" data-name="Ebene 2"><g id="Ebene_1-2" data-name="Ebene 1"><path class="cls-1" d="M6.16,4.4a5.61,5.61,0,0,0-.61-.14,5.84,5.84,0,0,0-.73,0,1.78,1.78,0,0,0-.47.06A1,1,0,0,0,4,4.49a1,1,0,0,0-.25.37,1.47,1.47,0,0,0-.09.55v1H6V7.48H3.64v4H2.2v-4H.47V6.37H2.2v-.9a3,3,0,0,1,.18-1.09,1.91,1.91,0,0,1,.52-.74,2.11,2.11,0,0,1,.81-.43,3.92,3.92,0,0,1,1.07-.13,4.33,4.33,0,0,1,.73,0,5.8,5.8,0,0,1,.65.12Z" transform="translate(-0.47 -3.08)"/><path class="cls-1" d="M11.84,9.72a1.61,1.61,0,0,1-.22.87,1.75,1.75,0,0,1-.6.58,2.83,2.83,0,0,1-.84.33,4.5,4.5,0,0,1-1,.1A10.43,10.43,0,0,1,8,11.54a7.41,7.41,0,0,1-1-.18V10.07a4.75,4.75,0,0,0,1.1.33,5.57,5.57,0,0,0,1,.11,1.6,1.6,0,0,0,.85-.18.55.55,0,0,0,.27-.47.6.6,0,0,0,0-.24A.66.66,0,0,0,10,9.4a2.25,2.25,0,0,0-.46-.21C9.36,9.12,9.1,9,8.78,9A5.23,5.23,0,0,1,8,8.67a1.84,1.84,0,0,1-.54-.37,1.25,1.25,0,0,1-.33-.49A1.8,1.8,0,0,1,7,7.16a1.46,1.46,0,0,1,.17-.68,1.56,1.56,0,0,1,.49-.57,2.35,2.35,0,0,1,.81-.38,3.84,3.84,0,0,1,1.13-.14,7.49,7.49,0,0,1,1,.05l.77.13V6.74a5.53,5.53,0,0,0-1-.23,5.42,5.42,0,0,0-.89-.07,1.3,1.3,0,0,0-.7.16A.48.48,0,0,0,8.58,7a.6.6,0,0,0,.05.24.58.58,0,0,0,.21.2,2.15,2.15,0,0,0,.43.21c.19.07.43.15.74.24a6.59,6.59,0,0,1,.87.31,2,2,0,0,1,.56.38,1.24,1.24,0,0,1,.31.48A1.93,1.93,0,0,1,11.84,9.72Z" transform="translate(-0.47 -3.08)"/><path class="cls-2" d="M14.35,10.39a.59.59,0,0,1,.23,0,.57.57,0,0,1,.18.12.76.76,0,0,1,.12.19.54.54,0,0,1,0,.22.51.51,0,0,1,0,.22.76.76,0,0,1-.12.19.57.57,0,0,1-.18.12.59.59,0,0,1-.23,0,.54.54,0,0,1-.22,0,.57.57,0,0,1-.18-.12.76.76,0,0,1-.12-.19.51.51,0,0,1-.05-.22.54.54,0,0,1,.05-.22.76.76,0,0,1,.12-.19.57.57,0,0,1,.18-.12A.54.54,0,0,1,14.35,10.39Z" transform="translate(-0.47 -3.08)"/><path class="cls-2" d="M18,11.62,13.41,7.74,18,3.87,19.09,5,15.7,7.73l3.39,2.81Z" transform="translate(-0.47 -3.08)"/></g></g></svg>